<?xml version="1.0" encoding="UTF-8" standalone="no"?>
<!DOCTYPE svg PUBLIC "-//W3C//DTD SVG 1.1//EN"
 "http://www.w3.org/Graphics/SVG/1.1/DTD/svg11.dtd">
<!-- Generated by graphviz version 9.0.0 (20230911.1827)
 -->
<!-- Title: AST Pages: 1 -->
<svg width="474pt" height="675pt"
 viewBox="0.00 0.00 474.00 674.50" xmlns="http://www.w3.org/2000/svg" xmlns:xlink="http://www.w3.org/1999/xlink">
<g id="graph0" class="graph" transform="scale(1 1) rotate(0) translate(4 670.5)">
<title>AST</title>
<polygon fill="white" stroke="none" points="-4,4 -4,-670.5 470,-670.5 470,4 -4,4"/>
<!-- 445051633 -->
<g id="node1" class="node">
<title>445051633</title>
<ellipse fill="none" stroke="black" cx="168" cy="-648.5" rx="34.46" ry="18"/>
<text text-anchor="middle" x="168" y="-643.45" font-family="Times,serif" font-size="14.00">fib.spl</text>
</g>
<!-- 2027961269 -->
<g id="node2" class="node">
<title>2027961269</title>
<ellipse fill="#65db79" stroke="black" cx="168" cy="-575.5" rx="48.79" ry="18"/>
<text text-anchor="middle" x="168" y="-570.45" font-family="Times,serif" font-size="14.00">def fib (n)</text>
</g>
<!-- 445051633&#45;&gt;2027961269 -->
<g id="edge1" class="edge">
<title>445051633&#45;&gt;2027961269</title>
<path fill="none" stroke="black" d="M168,-630.31C168,-622.73 168,-613.6 168,-605.04"/>
<polygon fill="black" stroke="black" points="171.5,-605.04 168,-595.04 164.5,-605.04 171.5,-605.04"/>
</g>
<!-- 1212899836 -->
<g id="node3" class="node">
<title>1212899836</title>
<ellipse fill="none" stroke="black" cx="168" cy="-487" rx="65.17" ry="18"/>
<text text-anchor="middle" x="168" y="-481.95" font-family="Times,serif" font-size="14.00">ProgramBlock</text>
</g>
<!-- 2027961269&#45;&gt;1212899836 -->
<g id="edge2" class="edge">
<title>2027961269&#45;&gt;1212899836</title>
<path fill="none" stroke="black" d="M168,-557.41C168,-545.76 168,-530.05 168,-516.52"/>
<polygon fill="black" stroke="black" points="171.5,-516.86 168,-506.86 164.5,-516.86 171.5,-516.86"/>
<text text-anchor="middle" x="182.62" y="-526.2" font-family="Times,serif" font-size="14.00">Body</text>
</g>
<!-- 1174290147 -->
<g id="node4" class="node">
<title>1174290147</title>
<ellipse fill="none" stroke="black" cx="128" cy="-414" rx="27" ry="18"/>
<text text-anchor="middle" x="128" y="-408.95" font-family="Times,serif" font-size="14.00">If</text>
</g>
<!-- 1212899836&#45;&gt;1174290147 -->
<g id="edge3" class="edge">
<title>1212899836&#45;&gt;1174290147</title>
<path fill="none" stroke="black" d="M158.32,-468.81C153.61,-460.46 147.86,-450.25 142.64,-440.98"/>
<polygon fill="black" stroke="black" points="145.75,-439.37 137.79,-432.37 139.65,-442.8 145.75,-439.37"/>
</g>
<!-- 1940447180 -->
<g id="node11" class="node">
<title>1940447180</title>
<ellipse fill="#e4706f" stroke="black" cx="209" cy="-414" rx="36" ry="18"/>
<text text-anchor="middle" x="209" y="-408.95" font-family="Times,serif" font-size="14.00">Return</text>
</g>
<!-- 1212899836&#45;&gt;1940447180 -->
<g id="edge10" class="edge">
<title>1212899836&#45;&gt;1940447180</title>
<path fill="none" stroke="black" d="M177.92,-468.81C182.68,-460.58 188.47,-450.54 193.77,-441.38"/>
<polygon fill="black" stroke="black" points="196.72,-443.26 198.69,-432.85 190.66,-439.76 196.72,-443.26"/>
</g>
<!-- 1289696681 -->
<g id="node5" class="node">
<title>1289696681</title>
<ellipse fill="none" stroke="black" cx="47" cy="-325.5" rx="27" ry="18"/>
<text text-anchor="middle" x="47" y="-320.45" font-family="Times,serif" font-size="14.00">||</text>
</g>
<!-- 1174290147&#45;&gt;1289696681 -->
<g id="edge4" class="edge">
<title>1174290147&#45;&gt;1289696681</title>
<path fill="none" stroke="black" d="M105.63,-403.54C93.79,-397.62 79.74,-389.01 70,-378 63.87,-371.06 59.13,-362.22 55.59,-353.83"/>
<polygon fill="black" stroke="black" points="58.94,-352.81 52.14,-344.68 52.39,-355.27 58.94,-352.81"/>
<text text-anchor="middle" x="97" y="-364.7" font-family="Times,serif" font-size="14.00">Condition</text>
</g>
<!-- 1588970020 -->
<g id="node9" class="node">
<title>1588970020</title>
<ellipse fill="#e4706f" stroke="black" cx="128" cy="-325.5" rx="36" ry="18"/>
<text text-anchor="middle" x="128" y="-320.45" font-family="Times,serif" font-size="14.00">Return</text>
</g>
<!-- 1174290147&#45;&gt;1588970020 -->
<g id="edge8" class="edge">
<title>1174290147&#45;&gt;1588970020</title>
<path fill="none" stroke="black" d="M128,-395.91C128,-384.26 128,-368.55 128,-355.02"/>
<polygon fill="black" stroke="black" points="131.5,-355.36 128,-345.36 124.5,-355.36 131.5,-355.36"/>
<text text-anchor="middle" x="158" y="-364.7" font-family="Times,serif" font-size="14.00">ThenBlock</text>
</g>
<!-- 1285044316 -->
<g id="node6" class="node">
<title>1285044316</title>
<ellipse fill="none" stroke="black" cx="47" cy="-252.5" rx="27" ry="18"/>
<text text-anchor="middle" x="47" y="-247.45" font-family="Times,serif" font-size="14.00">==</text>
</g>
<!-- 1289696681&#45;&gt;1285044316 -->
<g id="edge5" class="edge">
<title>1289696681&#45;&gt;1285044316</title>
<path fill="none" stroke="black" d="M47,-307.31C47,-299.73 47,-290.6 47,-282.04"/>
<polygon fill="black" stroke="black" points="50.5,-282.04 47,-272.04 43.5,-282.04 50.5,-282.04"/>
</g>
<!-- 1607460018 -->
<g id="node7" class="node">
<title>1607460018</title>
<ellipse fill="none" stroke="black" cx="27" cy="-164" rx="27" ry="18"/>
<text text-anchor="middle" x="27" y="-158.95" font-family="Times,serif" font-size="14.00">n</text>
</g>
<!-- 1285044316&#45;&gt;1607460018 -->
<g id="edge6" class="edge">
<title>1285044316&#45;&gt;1607460018</title>
<path fill="none" stroke="black" d="M43.05,-234.41C40.34,-222.68 36.67,-206.84 33.53,-193.25"/>
<polygon fill="black" stroke="black" points="36.95,-192.48 31.28,-183.53 30.13,-194.06 36.95,-192.48"/>
</g>
<!-- 1811075214 -->
<g id="node8" class="node">
<title>1811075214</title>
<ellipse fill="none" stroke="black" cx="99" cy="-164" rx="27" ry="18"/>
<text text-anchor="middle" x="99" y="-158.95" font-family="Times,serif" font-size="14.00">1</text>
</g>
<!-- 1285044316&#45;&gt;1811075214 -->
<g id="edge7" class="edge">
<title>1285044316&#45;&gt;1811075214</title>
<path fill="none" stroke="black" d="M56.78,-235.23C64.26,-222.79 74.73,-205.38 83.36,-191.01"/>
<polygon fill="black" stroke="black" points="86.33,-192.87 88.48,-182.49 80.33,-189.26 86.33,-192.87"/>
</g>
<!-- 1407343478 -->
<g id="node10" class="node">
<title>1407343478</title>
<ellipse fill="none" stroke="black" cx="128" cy="-252.5" rx="27" ry="18"/>
<text text-anchor="middle" x="128" y="-247.45" font-family="Times,serif" font-size="14.00">n</text>
</g>
<!-- 1588970020&#45;&gt;1407343478 -->
<g id="edge9" class="edge">
<title>1588970020&#45;&gt;1407343478</title>
<path fill="none" stroke="black" d="M128,-307.31C128,-299.73 128,-290.6 128,-282.04"/>
<polygon fill="black" stroke="black" points="131.5,-282.04 128,-272.04 124.5,-282.04 131.5,-282.04"/>
</g>
<!-- 245565335 -->
<g id="node12" class="node">
<title>245565335</title>
<ellipse fill="none" stroke="black" cx="209" cy="-325.5" rx="27" ry="18"/>
<text text-anchor="middle" x="209" y="-320.45" font-family="Times,serif" font-size="14.00">+</text>
</g>
<!-- 1940447180&#45;&gt;245565335 -->
<g id="edge11" class="edge">
<title>1940447180&#45;&gt;245565335</title>
<path fill="none" stroke="black" d="M209,-395.91C209,-384.26 209,-368.55 209,-355.02"/>
<polygon fill="black" stroke="black" points="212.5,-355.36 209,-345.36 205.5,-355.36 212.5,-355.36"/>
</g>
<!-- 2121744517 -->
<g id="node13" class="node">
<title>2121744517</title>
<ellipse fill="#f1cd77" stroke="black" cx="204" cy="-252.5" rx="27" ry="18"/>
<text text-anchor="middle" x="204" y="-247.45" font-family="Times,serif" font-size="14.00">Call</text>
</g>
<!-- 245565335&#45;&gt;2121744517 -->
<g id="edge12" class="edge">
<title>245565335&#45;&gt;2121744517</title>
<path fill="none" stroke="black" d="M207.79,-307.31C207.25,-299.64 206.6,-290.39 205.99,-281.74"/>
<polygon fill="black" stroke="black" points="209.5,-281.77 205.31,-272.04 202.52,-282.26 209.5,-281.77"/>
</g>
<!-- 1143839598 -->
<g id="node20" class="node">
<title>1143839598</title>
<ellipse fill="#f1cd77" stroke="black" cx="284" cy="-252.5" rx="27" ry="18"/>
<text text-anchor="middle" x="284" y="-247.45" font-family="Times,serif" font-size="14.00">Call</text>
</g>
<!-- 245565335&#45;&gt;1143839598 -->
<g id="edge19" class="edge">
<title>245565335&#45;&gt;1143839598</title>
<path fill="none" stroke="black" d="M224.18,-310.13C234.65,-300.22 248.77,-286.85 260.66,-275.59"/>
<polygon fill="black" stroke="black" points="262.89,-278.3 267.75,-268.89 258.08,-273.22 262.89,-278.3"/>
</g>
<!-- 1066376662 -->
<g id="node14" class="node">
<title>1066376662</title>
<ellipse fill="#8acef7" stroke="black" cx="187" cy="-164" rx="27" ry="18"/>
<text text-anchor="middle" x="187" y="-158.95" font-family="Times,serif" font-size="14.00">fib</text>
</g>
<!-- 2121744517&#45;&gt;1066376662 -->
<g id="edge13" class="edge">
<title>2121744517&#45;&gt;1066376662</title>
<path fill="none" stroke="black" d="M200.64,-234.41C198.35,-222.76 195.26,-207.05 192.6,-193.52"/>
<polygon fill="black" stroke="black" points="196.06,-192.97 190.7,-183.84 189.2,-194.32 196.06,-192.97"/>
<text text-anchor="middle" x="215.25" y="-203.2" font-family="Times,serif" font-size="14.00">Callee</text>
</g>
<!-- 183264084 -->
<g id="node15" class="node">
<title>183264084</title>
<ellipse fill="none" stroke="black" cx="79" cy="-91" rx="27" ry="18"/>
<text text-anchor="middle" x="79" y="-85.95" font-family="Times,serif" font-size="14.00">(</text>
</g>
<!-- 1066376662&#45;&gt;183264084 -->
<g id="edge14" class="edge">
<title>1066376662&#45;&gt;183264084</title>
<path fill="none" stroke="black" d="M168.19,-150.63C151.31,-139.54 126.3,-123.1 107.06,-110.45"/>
<polygon fill="black" stroke="black" points="109.14,-107.63 98.86,-105.06 105.29,-113.47 109.14,-107.63"/>
</g>
<!-- 476402209 -->
<g id="node16" class="node">
<title>476402209</title>
<ellipse fill="none" stroke="black" cx="151" cy="-91" rx="27" ry="18"/>
<text text-anchor="middle" x="151" y="-85.95" font-family="Times,serif" font-size="14.00">&#45;</text>
</g>
<!-- 1066376662&#45;&gt;476402209 -->
<g id="edge15" class="edge">
<title>1066376662&#45;&gt;476402209</title>
<path fill="none" stroke="black" d="M178.65,-146.53C174.42,-138.2 169.19,-127.88 164.42,-118.47"/>
<polygon fill="black" stroke="black" points="167.63,-117.06 159.99,-109.73 161.39,-120.23 167.63,-117.06"/>
</g>
<!-- 1919892312 -->
<g id="node19" class="node">
<title>1919892312</title>
<ellipse fill="none" stroke="black" cx="223" cy="-91" rx="27" ry="18"/>
<text text-anchor="middle" x="223" y="-85.95" font-family="Times,serif" font-size="14.00">)</text>
</g>
<!-- 1066376662&#45;&gt;1919892312 -->
<g id="edge18" class="edge">
<title>1066376662&#45;&gt;1919892312</title>
<path fill="none" stroke="black" d="M195.35,-146.53C199.58,-138.2 204.81,-127.88 209.58,-118.47"/>
<polygon fill="black" stroke="black" points="212.61,-120.23 214.01,-109.73 206.37,-117.06 212.61,-120.23"/>
</g>
<!-- 1490180672 -->
<g id="node17" class="node">
<title>1490180672</title>
<ellipse fill="none" stroke="black" cx="115" cy="-18" rx="27" ry="18"/>
<text text-anchor="middle" x="115" y="-12.95" font-family="Times,serif" font-size="14.00">n</text>
</g>
<!-- 476402209&#45;&gt;1490180672 -->
<g id="edge16" class="edge">
<title>476402209&#45;&gt;1490180672</title>
<path fill="none" stroke="black" d="M142.65,-73.53C138.42,-65.2 133.19,-54.88 128.42,-45.47"/>
<polygon fill="black" stroke="black" points="131.63,-44.06 123.99,-36.73 125.39,-47.23 131.63,-44.06"/>
</g>
<!-- 460332449 -->
<g id="node18" class="node">
<title>460332449</title>
<ellipse fill="none" stroke="black" cx="187" cy="-18" rx="27" ry="18"/>
<text text-anchor="middle" x="187" y="-12.95" font-family="Times,serif" font-size="14.00">1</text>
</g>
<!-- 476402209&#45;&gt;460332449 -->
<g id="edge17" class="edge">
<title>476402209&#45;&gt;460332449</title>
<path fill="none" stroke="black" d="M159.35,-73.53C163.58,-65.2 168.81,-54.88 173.58,-45.47"/>
<polygon fill="black" stroke="black" points="176.61,-47.23 178.01,-36.73 170.37,-44.06 176.61,-47.23"/>
</g>
<!-- 250075633 -->
<g id="node21" class="node">
<title>250075633</title>
<ellipse fill="#8acef7" stroke="black" cx="329" cy="-164" rx="27" ry="18"/>
<text text-anchor="middle" x="329" y="-158.95" font-family="Times,serif" font-size="14.00">fib</text>
</g>
<!-- 1143839598&#45;&gt;250075633 -->
<g id="edge20" class="edge">
<title>1143839598&#45;&gt;250075633</title>
<path fill="none" stroke="black" d="M292.46,-235.23C298.83,-222.98 307.7,-205.93 315.11,-191.7"/>
<polygon fill="black" stroke="black" points="318.21,-193.32 319.72,-182.83 312,-190.09 318.21,-193.32"/>
<text text-anchor="middle" x="328.25" y="-203.2" font-family="Times,serif" font-size="14.00">Callee</text>
</g>
<!-- 358699161 -->
<g id="node22" class="node">
<title>358699161</title>
<ellipse fill="none" stroke="black" cx="295" cy="-91" rx="27" ry="18"/>
<text text-anchor="middle" x="295" y="-85.95" font-family="Times,serif" font-size="14.00">(</text>
</g>
<!-- 250075633&#45;&gt;358699161 -->
<g id="edge21" class="edge">
<title>250075633&#45;&gt;358699161</title>
<path fill="none" stroke="black" d="M321.11,-146.53C317.12,-138.2 312.18,-127.88 307.67,-118.47"/>
<polygon fill="black" stroke="black" points="310.97,-117.25 303.5,-109.74 304.66,-120.27 310.97,-117.25"/>
</g>
<!-- 517938326 -->
<g id="node23" class="node">
<title>517938326</title>
<ellipse fill="none" stroke="black" cx="367" cy="-91" rx="27" ry="18"/>
<text text-anchor="middle" x="367" y="-85.95" font-family="Times,serif" font-size="14.00">&#45;</text>
</g>
<!-- 250075633&#45;&gt;517938326 -->
<g id="edge22" class="edge">
<title>250075633&#45;&gt;517938326</title>
<path fill="none" stroke="black" d="M337.81,-146.53C342.27,-138.2 347.8,-127.88 352.84,-118.47"/>
<polygon fill="black" stroke="black" points="355.89,-120.18 357.52,-109.71 349.72,-116.88 355.89,-120.18"/>
</g>
<!-- 425918570 -->
<g id="node26" class="node">
<title>425918570</title>
<ellipse fill="none" stroke="black" cx="439" cy="-91" rx="27" ry="18"/>
<text text-anchor="middle" x="439" y="-85.95" font-family="Times,serif" font-size="14.00">)</text>
</g>
<!-- 250075633&#45;&gt;425918570 -->
<g id="edge25" class="edge">
<title>250075633&#45;&gt;425918570</title>
<path fill="none" stroke="black" d="M347.66,-150.96C364.96,-139.79 390.95,-123.01 410.79,-110.21"/>
<polygon fill="black" stroke="black" points="412.47,-113.29 418.98,-104.92 408.68,-107.41 412.47,-113.29"/>
</g>
<!-- 914424520 -->
<g id="node24" class="node">
<title>914424520</title>
<ellipse fill="none" stroke="black" cx="331" cy="-18" rx="27" ry="18"/>
<text text-anchor="middle" x="331" y="-12.95" font-family="Times,serif" font-size="14.00">n</text>
</g>
<!-- 517938326&#45;&gt;914424520 -->
<g id="edge23" class="edge">
<title>517938326&#45;&gt;914424520</title>
<path fill="none" stroke="black" d="M358.65,-73.53C354.42,-65.2 349.19,-54.88 344.42,-45.47"/>
<polygon fill="black" stroke="black" points="347.63,-44.06 339.99,-36.73 341.39,-47.23 347.63,-44.06"/>
</g>
<!-- 110718392 -->
<g id="node25" class="node">
<title>110718392</title>
<ellipse fill="none" stroke="black" cx="403" cy="-18" rx="27" ry="18"/>
<text text-anchor="middle" x="403" y="-12.95" font-family="Times,serif" font-size="14.00">2</text>
</g>
<!-- 517938326&#45;&gt;110718392 -->
<g id="edge24" class="edge">
<title>517938326&#45;&gt;110718392</title>
<path fill="none" stroke="black" d="M375.35,-73.53C379.58,-65.2 384.81,-54.88 389.58,-45.47"/>
<polygon fill="black" stroke="black" points="392.61,-47.23 394.01,-36.73 386.37,-44.06 392.61,-47.23"/>
</g>
</g>
</svg>
